<svg width="512" height="512" viewBox="0 0 512 512" fill="none" xmlns="http://www.w3.org/2000/svg">
<path opacity="0.7" d="M213.238 57.4375C252.118 57.4375 291.558 83.8375 291.558 122.717C291.558 161.597 252.078 198.158 213.238 198.158C192.318 198.158 166.358 191.797 153.438 177.277C153.438 177.277 141.798 161.917 142.838 127.798C144.078 88.9575 174.398 57.4375 213.238 57.4375Z" fill="url(#paint0_radial_1101_3)"/>
<path opacity="0.7" d="M137.16 215.803C163.184 215.803 184.28 194.706 184.28 168.682C184.28 142.659 163.184 121.562 137.16 121.562C111.136 121.562 90.04 142.659 90.04 168.682C90.04 194.706 111.136 215.803 137.16 215.803Z" fill="url(#paint1_radial_1101_3)"/>
<path d="M47.6821 217.245C103.482 162.605 442.642 135.085 466.762 163.765C480.602 180.205 495.242 207.725 495.922 227.965C497.042 262.085 483.722 288.605 464.682 305.845C454.362 315.165 435.082 329.965 423.482 337.605C372.602 371.165 319.042 407.205 273.482 432.605C230.522 456.565 193.642 462.885 157.642 441.565C146.562 435.005 90.2421 402.125 56.2421 373.805C30.2821 352.245 15.2021 310.325 16.0421 282.565C16.6021 263.085 29.0021 235.525 47.6821 217.245Z" fill="#7FF4BC"/>
<path d="M61.8019 205.76C127.162 163.04 255.562 90.4398 279.002 79.6798C298.442 70.7598 322.922 67.2799 365.642 88.3999C365.642 88.3999 405.242 107.68 434.642 130.96C462.882 153.32 488.242 179.08 462.522 211.36C453.882 222.24 432.922 235.48 421.322 243.12C370.442 276.68 316.882 312.72 271.322 338.12C228.362 362.08 191.482 368.4 155.482 347.08C144.402 340.52 89.9219 305.24 54.0819 279.32C13.8419 250.24 40.2819 219.84 61.8019 205.76Z" fill="#7FF4AE"/>
<path d="M72.9216 206.164C134.082 166.204 255.402 98.5242 277.362 88.4842C295.562 80.1642 318.482 76.8842 358.442 96.6442C358.442 96.6442 395.482 114.684 423.002 136.444C449.442 157.364 473.162 181.444 449.082 211.684C441.002 221.884 421.362 234.244 410.522 241.404C362.922 272.804 312.802 306.524 270.162 330.284C229.962 352.684 195.442 358.604 161.762 338.684C151.402 332.524 100.402 299.524 66.8816 275.284C29.2016 248.084 52.8016 219.284 72.9216 206.164Z" fill="#B6FFCA"/>
<path d="M32.1991 284.593C29.0791 289.193 28.1591 295.553 28.0391 301.393C27.0791 348.633 85.1191 382.233 119.559 406.313C136.679 418.313 154.119 428.353 175.759 427.953C183.919 427.793 192.399 425.153 197.919 419.113C205.519 410.753 205.839 398.233 205.319 386.913C205.079 381.953 204.599 376.553 201.159 372.993C198.919 370.713 195.759 369.553 192.759 368.433C163.439 357.473 100.679 314.513 71.1991 293.033C60.7191 285.433 44.2791 266.753 32.1991 284.593ZM459.399 214.433C456.079 219.233 451.679 223.593 450.359 229.273C448.559 237.113 453.199 244.833 455.159 252.633C457.679 262.793 455.719 273.873 459.559 283.593C460.239 285.313 461.279 287.113 462.999 287.793C465.759 288.833 468.599 286.553 470.479 284.273C479.719 273.153 487.279 253.993 487.519 239.553C487.679 228.833 483.799 208.753 476.839 199.993C468.399 189.393 463.599 208.313 459.399 214.433Z" fill="#97FFC1"/>
<path d="M85.7205 340.914C83.9605 336.634 80.2405 333.394 76.2805 331.034C75.3205 330.474 74.3205 329.914 73.6405 329.034C71.9605 326.914 72.6405 323.914 72.5605 321.234C72.3605 315.474 67.8005 310.194 62.1205 309.154C59.4005 308.674 56.2405 309.154 54.4805 311.314C50.0005 316.914 54.0005 324.594 56.9605 327.194C58.7605 328.754 63.5605 329.674 62.6805 333.914C62.5205 334.674 62.1605 335.354 61.8405 336.034C60.3947 339.126 60.1246 342.638 61.0805 345.914C62.8805 351.954 68.5205 355.314 74.5605 355.874C77.5605 356.154 80.8005 355.594 83.1205 353.714C86.8005 350.714 87.4805 345.194 85.7205 340.914Z" fill="#B7FFB6"/>
<path d="M220.841 413.714C224.801 414.514 228.561 417.674 228.761 421.714C228.921 424.754 227.081 427.674 224.641 429.474C222.201 431.314 210.841 439.274 199.401 431.674C197.601 430.474 196.641 428.314 195.241 426.634C193.841 424.954 191.921 423.474 189.761 423.514C179.761 423.634 185.241 411.194 193.881 414.994C197.201 416.474 199.761 417.834 203.521 417.074C209.441 415.914 214.521 412.434 220.841 413.714ZM257.721 373.954C254.001 377.154 251.161 381.394 249.641 386.034C248.961 388.114 248.601 390.634 250.041 392.274C251.241 393.674 253.321 393.954 255.161 393.834C260.561 393.554 265.681 390.954 269.841 387.514C273.801 384.234 280.601 375.114 274.201 370.754C269.521 367.594 261.401 370.794 257.721 373.954Z" fill="#97FFC1"/>
<path d="M213.238 57.4375C252.118 57.4375 291.558 83.8375 291.558 122.717C291.558 161.597 252.078 198.158 213.238 198.158C192.318 198.158 166.358 191.797 153.438 177.277C153.438 177.277 141.798 161.917 142.838 127.798C144.078 88.9575 174.398 57.4375 213.238 57.4375Z" fill="url(#paint2_radial_1101_3)"/>
<path d="M305.478 380.949C315.358 352.629 343.838 358.149 343.838 358.149C370.198 360.669 381.678 403.429 381.678 403.429C381.678 403.429 358.798 434.829 322.838 422.829C304.758 416.749 298.758 400.229 305.478 380.949Z" fill="url(#paint3_radial_1101_3)"/>
<path d="M344.16 358.162C351.32 316.522 382.961 294.082 420.921 298.242C440.841 300.442 462.401 332.762 450.641 368.962C440.561 399.962 404.16 408.562 381.72 403.402C342.2 394.402 344.16 358.162 344.16 358.162Z" fill="url(#paint4_radial_1101_3)"/>
<path d="M405 276.726C422.938 276.726 437.48 262.184 437.48 244.246C437.48 226.307 422.938 211.766 405 211.766C387.061 211.766 372.52 226.307 372.52 244.246C372.52 262.184 387.061 276.726 405 276.726Z" fill="url(#paint5_radial_1101_3)"/>
<path opacity="0.9" d="M230.56 72.7987C241 76.7587 250.12 84.8787 253.92 95.3987C256.12 101.519 255.92 109.519 250.56 113.199C247.2 115.479 240.64 116.959 227.44 107.199C206.68 91.8387 200.88 105.199 182.36 100.679C168 97.1987 174.52 85.4387 177.08 82.4787C189.6 67.9587 213.76 66.3987 230.56 72.7987ZM103.64 162.799C105.36 163.839 107.64 163.279 109.36 162.199C113.28 159.799 111.96 153.199 119.8 145.999C121.24 144.679 126.56 139.479 123.12 135.999C118.6 131.439 110.2 134.839 104.88 141.919C98.9202 149.919 98.1602 159.519 103.64 162.799Z" fill="white"/>
<path d="M276.081 164.327C276.081 164.327 264.441 151.847 266.681 121.567C268.321 99.4868 281.281 89.4468 281.281 89.4468C281.281 89.4468 317.841 83.7268 335.921 103.367C350.401 119.087 347.201 139.487 329.601 152.527C302.721 172.407 276.081 164.327 276.081 164.327Z" fill="url(#paint6_radial_1101_3)"/>
<path d="M216.801 194.433C219.241 207.633 210.881 225.473 195.441 234.393C176.921 245.073 143.401 239.513 134.801 223.553C127.961 210.833 125.721 172.073 158.401 159.913C202.521 143.393 216.281 191.793 216.801 194.433Z" fill="url(#paint7_radial_1101_3)"/>
<path d="M252.958 221.084C234.278 241.164 205.998 225.764 205.998 225.764C189.558 200.124 205.278 171.604 205.278 171.604C205.278 171.604 245.198 160.764 258.878 181.804C258.918 181.844 272.318 200.324 252.958 221.084Z" fill="url(#paint8_radial_1101_3)"/>
<path opacity="0.9" d="M170.72 178.756C170.6 181.316 169.08 183.556 167.64 185.636L158.08 199.276C156.6 201.396 152.16 208.796 145.72 206.276C143.6 205.436 142.24 203.356 141.48 201.196C138.56 192.996 142.56 179.596 150.16 173.076C157.64 166.636 171.16 168.876 170.72 178.756ZM405.04 221.676C407.32 222.796 409 225.356 408.48 227.876C407.88 230.876 404.68 232.476 402.16 234.236C399.76 235.876 397.68 237.916 396.04 240.316C394.96 241.876 394.04 243.596 392.76 245.036C391.48 246.476 389.72 247.636 387.8 247.596C386 247.556 384.32 246.476 383.32 245.036C375.64 233.756 393.76 216.116 405.04 221.676Z" fill="white"/>
<path opacity="0.43" d="M344.161 358.16C344.161 358.16 358.721 358.92 369.121 376.08C378.241 391.08 381.681 403.44 381.681 403.44C381.681 403.44 362.921 400.12 352.521 385.24C343.441 372.2 344.161 358.16 344.161 358.16Z" fill="#80EAB7"/>
<path opacity="0.5" d="M144.958 154.713C144.958 154.713 141.478 138.073 143.318 121.953C143.318 121.953 152.758 122.873 160.638 127.793C169.878 133.593 173.158 138.233 173.158 138.233L144.958 154.713Z" fill="#80EA9E"/>
<path opacity="0.8" d="M284.04 101.316C278.24 105.596 274 110.676 273.56 117.876C273.4 120.276 273.8 122.956 275.6 124.516C282.28 130.156 288.36 118.476 299.12 116.956C318.04 114.316 315.04 102.916 305.68 98.9963C299.44 96.3563 291.6 95.7563 284.04 101.316ZM406.72 309.756C418.2 314.596 413.679 324.636 409.799 325.716C396.519 329.476 394.32 335.476 390.96 338.076C387.6 340.716 383.84 343.076 379.64 343.756C375.44 344.436 370.64 343.036 368.32 339.476C363.24 331.676 371.56 321.436 377.24 316.316C385.12 309.196 396.68 305.516 406.72 309.756ZM339.68 365.756C356.72 365.756 359.2 375.756 358.6 377.836C356.72 384.396 349.2 381.956 346.92 381.756C343.36 381.476 339.76 381.756 336.28 382.596C333.68 383.236 331.12 384.196 328.44 384.356C322.68 384.756 317.6 379.596 320.84 374.036C323.8 368.956 334.44 365.756 339.68 365.756Z" fill="white"/>
<defs>
<radialGradient id="paint0_radial_1101_3" cx="0" cy="0" r="1" gradientUnits="userSpaceOnUse" gradientTransform="translate(220.862 140.363) scale(89.532 90.3288)">
<stop offset="0.522" stop-color="#80EA9E" stop-opacity="0"/>
<stop offset="1" stop-color="#80EA8B"/>
</radialGradient>
<radialGradient id="paint1_radial_1101_3" cx="0" cy="0" r="1" gradientUnits="userSpaceOnUse" gradientTransform="translate(143.236 175.028) scale(46.26 46.6717)">
<stop offset="0.545" stop-color="#80EA9E" stop-opacity="0"/>
<stop offset="1" stop-color="#80EAAA"/>
</radialGradient>
<radialGradient id="paint2_radial_1101_3" cx="0" cy="0" r="1" gradientUnits="userSpaceOnUse" gradientTransform="translate(201.47 104.972) scale(85.468 86.2287)">
<stop offset="0.601" stop-color="white" stop-opacity="0"/>
<stop offset="1" stop-color="white" stop-opacity="0.8"/>
</radialGradient>
<radialGradient id="paint3_radial_1101_3" cx="0" cy="0" r="1" gradientUnits="userSpaceOnUse" gradientTransform="translate(342.254 391.617) scale(36.78 36.78)">
<stop offset="0.376" stop-color="#80EA84" stop-opacity="0"/>
<stop offset="1" stop-color="#80EAA4" stop-opacity="0.8"/>
</radialGradient>
<radialGradient id="paint4_radial_1101_3" cx="0" cy="0" r="1" gradientUnits="userSpaceOnUse" gradientTransform="translate(396.464 348.13) scale(59.724 59.724)">
<stop offset="0.376" stop-color="#80EA8B" stop-opacity="0"/>
<stop offset="1" stop-color="#80EA97" stop-opacity="0.8"/>
</radialGradient>
<radialGradient id="paint5_radial_1101_3" cx="0" cy="0" r="1" gradientUnits="userSpaceOnUse" gradientTransform="translate(405.54 244.354) scale(31.14 31.14)">
<stop offset="0.557" stop-color="white" stop-opacity="0"/>
<stop offset="1" stop-color="white" stop-opacity="0.8"/>
</radialGradient>
<radialGradient id="paint6_radial_1101_3" cx="0" cy="0" r="1" gradientUnits="userSpaceOnUse" gradientTransform="translate(303.377 123.353) scale(38.224 38.5642)">
<stop offset="0.557" stop-color="white" stop-opacity="0"/>
<stop offset="1" stop-color="white" stop-opacity="0.8"/>
</radialGradient>
<radialGradient id="paint7_radial_1101_3" cx="0" cy="0" r="1" gradientUnits="userSpaceOnUse" gradientTransform="translate(173.042 198.364) rotate(-30.0016) scale(47.257 38.3714)">
<stop offset="0.557" stop-color="white" stop-opacity="0"/>
<stop offset="1" stop-color="white" stop-opacity="0.8"/>
</radialGradient>
<radialGradient id="paint8_radial_1101_3" cx="0" cy="0" r="1" gradientUnits="userSpaceOnUse" gradientTransform="translate(230.158 199.952) scale(31.3 31.5786)">
<stop offset="0.557" stop-color="white" stop-opacity="0"/>
<stop offset="1" stop-color="white" stop-opacity="0.8"/>
</radialGradient>
</defs>
</svg>
